# Blender 4.3.2
# www.blender.org
mtllib skybox.mtl
o Cube
v 1.000000 1.000000 -1.000000
v 1.000000 -1.000000 -1.000000
v 1.000000 1.000000 1.000000
v 1.000000 -1.000000 1.000000
v -1.000000 1.000000 -1.000000
v -1.000000 -1.000000 -1.000000
v -1.000000 1.000000 1.000000
v -1.000000 -1.000000 1.000000
vn -0.0000 1.0000 -0.0000
vn -0.0000 -0.0000 1.0000
vn -1.0000 -0.0000 -0.0000
vn -0.0000 -1.0000 -0.0000
vn 1.0000 -0.0000 -0.0000
vn -0.0000 -0.0000 -1.0000
vt 4.499200 4.499200
vt -3.499200 4.499200
vt -3.499200 -3.499200
vt 4.499200 -3.499200
vt -3.499200 -3.499199
vt 4.499200 -3.499200
vt 4.499200 4.499200
vt -3.499200 4.499201
vt 4.499199 4.499199
vt -3.499200 4.499200
vt -3.499200 -3.499199
vt 4.499199 -3.499200
vt 4.499199 -3.499200
vt -3.499199 4.499200
vt -3.499200 -3.499199
s 0
usemtl Material
f 1/1/1 5/2/1 7/3/1 3/4/1
f 4/5/2 3/6/2 7/7/2 8/8/2
f 8/9/3 7/10/3 5/11/3 6/12/3
f 6/13/4 2/7/4 4/14/4 8/15/4
f 2/5/5 1/6/5 3/7/5 4/8/5
f 6/9/6 5/10/6 1/11/6 2/12/6
